<?xml version="1.0" encoding="UTF-8"?>
<svg xmlns="http://www.w3.org/2000/svg" xmlns:xlink="http://www.w3.org/1999/xlink" width="610.83pt" height="277.02pt" viewBox="0 0 610.83 277.02" version="1.1">
<defs>
<clipPath id="clip1">
  <path d="M 0 5 L 610.828125 5 L 610.828125 277.019531 L 0 277.019531 Z M 0 5 "/>
</clipPath>
</defs>
<g id="surface1">
<path style=" stroke:none;fill-rule:evenodd;fill:rgb(91.398621%,50.19989%,36.499023%);fill-opacity:1;" d="M 4 218.457031 L 606.828125 218.457031 L 606.828125 256.011719 C 606.828125 265.402344 599.214844 273.019531 589.820313 273.019531 L 21.007813 273.019531 C 11.613281 273.019531 4 265.402344 4 256.011719 L 4 218.457031 "/>
<g clip-path="url(#clip1)" clip-rule="nonzero">
<path style="fill:none;stroke-width:79.999;stroke-linecap:butt;stroke-linejoin:miter;stroke:rgb(91.398621%,50.19989%,36.499023%);stroke-opacity:1;stroke-miterlimit:3.86369;" d="M 40 2105.590625 C 40 2199.535937 116.132813 2275.707812 210.078125 2275.707812 L 5898.203125 2275.707812 C 5992.148438 2275.707812 6068.28125 2199.535937 6068.28125 2105.590625 L 6068.28125 210.082812 C 6068.28125 116.1375 5992.148438 40.004687 5898.203125 40.004687 L 210.078125 40.004687 C 116.132813 40.004687 40 116.1375 40 210.082812 Z M 40 2105.590625 " transform="matrix(0.1,0,0,-0.1,0,277.02)"/>
</g>
<path style=" stroke:none;fill-rule:evenodd;fill:rgb(91.741943%,42.367554%,30.601501%);fill-opacity:1;" d="M 299.113281 77.878906 L 279.855469 77.878906 L 279.855469 66 L 332.503906 66 L 332.503906 77.878906 L 313.242188 77.878906 L 313.242188 130.171875 L 299.113281 130.171875 L 299.113281 77.878906 "/>
<path style=" stroke:none;fill-rule:evenodd;fill:rgb(91.741943%,42.367554%,30.601501%);fill-opacity:1;" d="M 354 94.980469 L 369.480469 94.980469 C 375.960938 94.980469 379.199219 91.933594 379.199219 85.84375 C 379.199219 79.933594 375.960938 76.980469 369.480469 76.980469 L 354 76.980469 Z M 339.871094 66 L 374.519531 66 C 380.101563 66 384.628906 67.703125 388.109375 71.117188 C 391.589844 74.527344 393.328125 78.714844 393.328125 83.683594 C 393.328125 87.632813 392.519531 90.9375 390.898438 93.601563 C 389.28125 96.265625 386.699219 98.3125 383.160156 99.75 C 386.460938 100.710938 388.84375 102.570313 390.316406 105.328125 C 391.785156 108.089844 392.519531 111.300781 392.519531 114.960938 C 392.519531 118.199219 392.683594 121.140625 393.015625 123.777344 C 393.34375 126.421875 394.078125 128.550781 395.21875 130.171875 L 381.089844 130.171875 C 380.429688 128.671875 379.921875 125.894531 379.558594 121.84375 C 379.199219 117.796875 378.871094 114.734375 378.570313 112.664063 C 378.269531 110.59375 377.324219 108.808594 375.734375 107.308594 C 374.144531 105.808594 371.609375 105.058594 368.128906 105.058594 L 354 105.058594 L 354 130.171875 L 339.871094 130.171875 L 339.871094 66 "/>
<path style=" stroke:none;fill-rule:evenodd;fill:rgb(91.741943%,42.367554%,30.601501%);fill-opacity:1;" d="M 459.363281 105.851563 C 459.363281 114.347656 456.976563 120.765625 452.207031 125.101563 C 447.4375 129.441406 440.671875 131.609375 431.910156 131.609375 C 423.09375 131.609375 416.328125 129.46875 411.617188 125.191406 C 406.90625 120.914063 404.550781 114.464844 404.550781 105.851563 L 404.550781 66 L 418.683594 66 L 418.683594 105.824219 C 418.683594 110.132813 419.566406 113.523438 421.339844 116.007813 C 423.105469 118.488281 426.632813 119.730469 431.910156 119.730469 C 436.890625 119.730469 440.355469 118.652344 442.308594 116.5 C 444.257813 114.347656 445.230469 110.789063 445.230469 105.824219 L 445.230469 66 L 459.363281 66 L 459.363281 105.851563 "/>
<path style=" stroke:none;fill-rule:evenodd;fill:rgb(91.741943%,42.367554%,30.601501%);fill-opacity:1;" d="M 481.101563 108.75 C 481.101563 112.769531 482.4375 115.753906 485.105469 117.703125 C 487.777344 119.652344 491.183594 120.628906 495.324219 120.628906 C 498.5625 120.628906 501.457031 120.03125 504.007813 118.835938 C 506.558594 117.640625 507.832031 115.574219 507.832031 112.644531 C 507.832031 109.652344 506.632813 107.664063 504.230469 106.679688 C 501.832031 105.691406 496.730469 104.167969 488.933594 102.105469 C 481.132813 100.039063 475.957031 97.542969 473.40625 94.613281 C 470.855469 91.683594 469.582031 88.09375 469.582031 83.847656 C 469.582031 77.6875 471.980469 72.917969 476.78125 69.539063 C 481.582031 66.160156 487.191406 64.46875 493.613281 64.46875 C 500.992188 64.46875 507.128906 66.15625 512.015625 69.53125 C 516.90625 72.90625 519.351563 78.089844 519.351563 85.078125 L 505.671875 85.078125 C 505.671875 81.570313 504.515625 79.089844 502.207031 77.632813 C 499.898438 76.179688 496.824219 75.449219 492.980469 75.449219 C 490.402344 75.449219 488.136719 76.03125 486.1875 77.199219 C 484.238281 78.363281 483.261719 80.203125 483.261719 82.714844 C 483.261719 85.46875 484.65625 87.304688 487.449219 88.234375 C 490.238281 89.160156 495.082031 90.507813 501.980469 92.269531 C 508.882813 94.035156 513.863281 96.398438 516.921875 99.359375 C 519.980469 102.316406 521.511719 106.21875 521.511719 111.066406 C 521.511719 117.164063 519.203125 122.113281 514.582031 125.914063 C 509.964844 129.710938 503.363281 131.609375 494.78125 131.609375 C 487.101563 131.609375 480.621094 129.660156 475.34375 125.757813 C 470.0625 121.859375 467.421875 116.191406 467.421875 108.75 L 481.101563 108.75 "/>
<path style=" stroke:none;fill-rule:evenodd;fill:rgb(91.741943%,42.367554%,30.601501%);fill-opacity:1;" d="M 544.0625 77.878906 L 524.804688 77.878906 L 524.804688 66 L 577.453125 66 L 577.453125 77.878906 L 558.195313 77.878906 L 558.195313 130.171875 L 544.0625 130.171875 L 544.0625 77.878906 "/>
<path style=" stroke:none;fill-rule:evenodd;fill:rgb(17.713928%,48.452759%,62.22229%);fill-opacity:1;" d="M 300.894531 142 L 320.785156 142 L 335.8125 186.191406 L 350.214844 142 L 370.105469 142 L 370.105469 206.171875 L 356.875 206.171875 L 356.875 160.628906 L 340.945313 206.171875 L 330.054688 206.171875 L 314.304688 161.078125 L 314.125 206.171875 L 300.894531 206.171875 L 300.894531 142 "/>
<path style=" stroke:none;fill-rule:evenodd;fill:rgb(17.713928%,48.452759%,62.22229%);fill-opacity:1;" d="M 398.601563 181.328125 L 415.253906 181.328125 L 407.152344 157.839844 Z M 399.953125 142 L 414.441406 142 L 438.472656 206.171875 L 423.804688 206.171875 L 418.941406 191.859375 L 394.914063 191.859375 L 389.871094 206.171875 L 375.5625 206.171875 L 399.953125 142 "/>
<path style=" stroke:none;fill-rule:evenodd;fill:rgb(17.713928%,48.452759%,62.22229%);fill-opacity:1;" d="M 458.089844 170.980469 L 473.570313 170.980469 C 480.050781 170.980469 483.289063 167.933594 483.289063 161.84375 C 483.289063 155.933594 480.050781 152.980469 473.570313 152.980469 L 458.089844 152.980469 Z M 443.960938 142 L 478.609375 142 C 484.191406 142 488.71875 143.703125 492.199219 147.117188 C 495.679688 150.527344 497.421875 154.714844 497.421875 159.683594 C 497.421875 163.632813 496.609375 166.9375 494.988281 169.601563 C 493.371094 172.265625 490.789063 174.3125 487.25 175.75 C 490.550781 176.710938 492.933594 178.570313 494.40625 181.328125 C 495.875 184.089844 496.609375 187.300781 496.609375 190.960938 C 496.609375 194.199219 496.773438 197.140625 497.105469 199.777344 C 497.433594 202.421875 498.171875 204.550781 499.308594 206.171875 L 485.179688 206.171875 C 484.519531 204.671875 484.011719 201.894531 483.648438 197.84375 C 483.289063 193.796875 482.960938 190.734375 482.660156 188.664063 C 482.359375 186.59375 481.414063 184.808594 479.824219 183.308594 C 478.234375 181.808594 475.699219 181.058594 472.21875 181.058594 L 458.089844 181.058594 L 458.089844 206.171875 L 443.960938 206.171875 L 443.960938 142 "/>
<path style=" stroke:none;fill-rule:evenodd;fill:rgb(17.713928%,48.452759%,62.22229%);fill-opacity:1;" d="M 508.910156 142 L 523.042969 142 L 523.042969 168.550781 L 548.152344 142 L 565.792969 142 L 540.683594 167.34375 L 568.222656 206.171875 L 550.492188 206.171875 L 531.140625 177.277344 L 523.042969 185.46875 L 523.042969 206.171875 L 508.910156 206.171875 L 508.910156 142 "/>
<path style=" stroke:none;fill-rule:evenodd;fill:rgb(100%,100%,100%);fill-opacity:1;" d="M 37.554688 256.195313 C 36.617188 257.382813 35.535156 258.261719 34.3125 258.832031 C 33.089844 259.402344 31.816406 259.6875 30.496094 259.6875 C 26.632813 259.6875 23.5625 258.421875 21.28125 255.882813 C 19 253.34375 17.859375 250.171875 17.859375 246.367188 C 17.859375 242.441406 18.996094 239.207031 21.261719 236.65625 C 23.53125 234.105469 26.609375 232.832031 30.496094 232.832031 C 33.257813 232.832031 35.679688 233.636719 37.769531 235.242188 C 39.855469 236.851563 41.046875 239.046875 41.332031 241.832031 L 35.933594 241.832031 C 35.621094 240.441406 34.984375 239.382813 34.023438 238.664063 C 33.066406 237.945313 31.890625 237.585938 30.496094 237.585938 C 28.121094 237.585938 26.363281 238.421875 25.222656 240.09375 C 24.082031 241.765625 23.511719 243.859375 23.511719 246.367188 C 23.511719 248.757813 24.082031 250.78125 25.222656 252.445313 C 26.363281 254.105469 28.121094 254.9375 30.496094 254.9375 C 34.242188 254.9375 36.28125 253.089844 36.617188 249.390625 L 30.929688 249.390625 L 30.929688 245.179688 L 41.730469 245.179688 L 41.730469 259.113281 L 38.128906 259.113281 L 37.554688 256.195313 "/>
<path style=" stroke:none;fill-rule:evenodd;fill:rgb(100%,100%,100%);fill-opacity:1;" d="M 54.8125 255.765625 C 56.421875 255.765625 57.578125 255.199219 58.285156 254.070313 C 58.996094 252.945313 59.347656 251.527344 59.347656 249.824219 C 59.347656 248.097656 59 246.667969 58.304688 245.539063 C 57.609375 244.410156 56.445313 243.847656 54.8125 243.847656 C 53.226563 243.847656 52.082031 244.425781 51.375 245.574219 C 50.667969 246.726563 50.3125 248.144531 50.3125 249.824219 C 50.3125 251.527344 50.660156 252.945313 51.355469 254.070313 C 52.050781 255.199219 53.203125 255.765625 54.8125 255.765625 Z M 54.8125 239.996094 C 57.765625 239.996094 60.109375 240.890625 61.851563 242.679688 C 63.589844 244.464844 64.460938 246.847656 64.460938 249.824219 C 64.460938 252.777344 63.578125 255.144531 61.816406 256.933594 C 60.050781 258.722656 57.71875 259.617188 54.8125 259.617188 C 51.882813 259.617188 49.550781 258.722656 47.808594 256.933594 C 46.070313 255.144531 45.199219 252.777344 45.199219 249.824219 C 45.199219 246.847656 46.070313 244.464844 47.808594 242.679688 C 49.550781 240.890625 51.882813 239.996094 54.8125 239.996094 "/>
<path style=" stroke:none;fill-rule:evenodd;fill:rgb(100%,100%,100%);fill-opacity:1;" d="M 78.0625 259.113281 L 72.375 259.113281 L 66.003906 240.5 L 71.367188 240.5 L 75.273438 253.207031 L 79.25 240.5 L 84.363281 240.5 L 78.0625 259.113281 "/>
<path style=" stroke:none;fill-rule:evenodd;fill:rgb(100%,100%,100%);fill-opacity:1;" d="M 98.972656 247.773438 C 98.734375 246.417969 98.300781 245.425781 97.679688 244.792969 C 97.054688 244.164063 96.128906 243.847656 94.90625 243.847656 C 93.464844 243.847656 92.398438 244.269531 91.703125 245.113281 C 91.003906 245.960938 90.65625 246.84375 90.65625 247.773438 Z M 90.65625 251.011719 C 90.65625 252.609375 91.054688 253.800781 91.847656 254.585938 C 92.636719 255.371094 93.765625 255.765625 95.230469 255.765625 C 96.214844 255.765625 97.089844 255.515625 97.859375 255.015625 C 98.625 254.515625 99.09375 253.949219 99.261719 253.316406 L 103.761719 253.316406 C 103.066406 255.488281 101.984375 257.082031 100.523438 258.09375 C 99.058594 259.109375 97.234375 259.617188 95.050781 259.617188 C 92.144531 259.617188 89.835938 258.710938 88.121094 256.898438 C 86.402344 255.085938 85.546875 252.726563 85.546875 249.824219 C 85.546875 246.992188 86.425781 244.644531 88.191406 242.785156 C 89.957031 240.925781 92.242188 239.996094 95.050781 239.996094 C 98 239.996094 100.246094 241.0625 101.78125 243.191406 C 103.316406 245.320313 104.085938 247.925781 104.085938 251.011719 L 90.65625 251.011719 "/>
<path style=" stroke:none;fill-rule:evenodd;fill:rgb(100%,100%,100%);fill-opacity:1;" d="M 107.078125 240.5 L 111.9375 240.5 L 111.9375 243.957031 C 112.441406 242.804688 113.257813 241.855469 114.386719 241.113281 C 115.511719 240.367188 116.699219 239.996094 117.949219 239.996094 C 118.335938 239.996094 118.707031 240.054688 119.066406 240.175781 L 119.066406 244.929688 C 118.539063 244.808594 117.925781 244.75 117.230469 244.75 C 115.476563 244.75 114.199219 245.300781 113.394531 246.402344 C 112.59375 247.507813 112.191406 248.949219 112.191406 250.722656 L 112.191406 259.113281 L 107.078125 259.113281 L 107.078125 240.5 "/>
<path style=" stroke:none;fill-rule:evenodd;fill:rgb(100%,100%,100%);fill-opacity:1;" d="M 121.085938 240.5 L 125.945313 240.5 L 125.945313 243.09375 C 126.644531 242.058594 127.496094 241.285156 128.503906 240.769531 C 129.511719 240.253906 130.589844 239.996094 131.742188 239.996094 C 134.3125 239.996094 136.085938 240.644531 137.070313 241.941406 C 138.054688 243.234375 138.546875 245.144531 138.546875 247.664063 L 138.546875 259.113281 L 133.433594 259.113281 L 133.433594 248.601563 C 133.433594 245.550781 132.34375 244.027344 130.160156 244.027344 C 128.742188 244.027344 127.730469 244.441406 127.117188 245.269531 C 126.503906 246.097656 126.199219 247.460938 126.199219 249.355469 L 126.199219 259.113281 L 121.085938 259.113281 L 121.085938 240.5 "/>
<path style=" stroke:none;fill-rule:evenodd;fill:rgb(100%,100%,100%);fill-opacity:1;" d="M 142.542969 240.5 L 147.367188 240.5 L 147.367188 243.019531 C 148.085938 242.035156 148.921875 241.285156 149.867188 240.769531 C 150.816406 240.253906 151.902344 239.996094 153.125 239.996094 C 154.398438 239.996094 155.503906 240.242188 156.4375 240.734375 C 157.375 241.226563 158.082031 242.011719 158.5625 243.09375 C 159.160156 242.203125 159.941406 241.464844 160.902344 240.878906 C 161.863281 240.289063 162.953125 239.996094 164.179688 239.996094 C 166.289063 239.996094 167.953125 240.53125 169.164063 241.597656 C 170.375 242.667969 170.980469 244.351563 170.980469 246.65625 L 170.980469 259.113281 L 165.871094 259.113281 L 165.871094 248.5625 C 165.871094 247.050781 165.679688 245.917969 165.292969 245.160156 C 164.910156 244.40625 164.058594 244.027344 162.738281 244.027344 C 161.441406 244.027344 160.546875 244.464844 160.054688 245.34375 C 159.5625 246.21875 159.316406 247.351563 159.316406 248.742188 L 159.316406 259.113281 L 154.207031 259.113281 L 154.207031 248.671875 C 154.207031 247.113281 154.050781 245.949219 153.738281 245.179688 C 153.425781 244.410156 152.550781 244.027344 151.109375 244.027344 C 150.316406 244.027344 149.542969 244.347656 148.789063 244.980469 C 148.03125 245.617188 147.652344 246.726563 147.652344 248.3125 L 147.652344 259.113281 L 142.542969 259.113281 L 142.542969 240.5 "/>
<path style=" stroke:none;fill-rule:evenodd;fill:rgb(100%,100%,100%);fill-opacity:1;" d="M 187.53125 247.773438 C 187.289063 246.417969 186.859375 245.425781 186.234375 244.792969 C 185.609375 244.164063 184.6875 243.847656 183.460938 243.847656 C 182.023438 243.847656 180.953125 244.269531 180.257813 245.113281 C 179.5625 245.960938 179.214844 246.84375 179.214844 247.773438 Z M 179.214844 251.011719 C 179.214844 252.609375 179.609375 253.800781 180.402344 254.585938 C 181.195313 255.371094 182.320313 255.765625 183.785156 255.765625 C 184.769531 255.765625 185.644531 255.515625 186.414063 255.015625 C 187.183594 254.515625 187.648438 253.949219 187.816406 253.316406 L 192.316406 253.316406 C 191.621094 255.488281 190.542969 257.082031 189.078125 258.09375 C 187.613281 259.109375 185.789063 259.617188 183.605469 259.617188 C 180.703125 259.617188 178.390625 258.710938 176.675781 256.898438 C 174.960938 255.085938 174.101563 252.726563 174.101563 249.824219 C 174.101563 246.992188 174.984375 244.644531 176.746094 242.785156 C 178.511719 240.925781 180.796875 239.996094 183.605469 239.996094 C 186.558594 239.996094 188.800781 241.0625 190.339844 243.191406 C 191.875 245.320313 192.640625 247.925781 192.640625 251.011719 L 179.214844 251.011719 "/>
<path style=" stroke:none;fill-rule:evenodd;fill:rgb(100%,100%,100%);fill-opacity:1;" d="M 195.632813 240.5 L 200.492188 240.5 L 200.492188 243.09375 C 201.1875 242.058594 202.039063 241.285156 203.050781 240.769531 C 204.058594 240.253906 205.136719 239.996094 206.289063 239.996094 C 208.855469 239.996094 210.632813 240.644531 211.617188 241.941406 C 212.601563 243.234375 213.09375 245.144531 213.09375 247.664063 L 213.09375 259.113281 L 207.980469 259.113281 L 207.980469 248.601563 C 207.980469 245.550781 206.890625 244.027344 204.703125 244.027344 C 203.289063 244.027344 202.277344 244.441406 201.664063 245.269531 C 201.050781 246.097656 200.746094 247.460938 200.746094 249.355469 L 200.746094 259.113281 L 195.632813 259.113281 L 195.632813 240.5 "/>
<path style=" stroke:none;fill-rule:evenodd;fill:rgb(100%,100%,100%);fill-opacity:1;" d="M 223.425781 240.5 L 227.167969 240.5 L 227.167969 243.921875 L 223.425781 243.921875 L 223.425781 253.136719 C 223.425781 254 223.570313 254.574219 223.855469 254.863281 C 224.144531 255.152344 224.71875 255.296875 225.585938 255.296875 C 226.160156 255.296875 226.6875 255.234375 227.167969 255.117188 L 227.167969 259.113281 C 226.761719 259.199219 226.183594 259.257813 225.441406 259.285156 C 224.695313 259.3125 224.277344 259.328125 224.179688 259.328125 C 222.332031 259.328125 220.894531 259.023438 219.859375 258.410156 C 218.828125 257.796875 218.3125 256.628906 218.3125 254.898438 L 218.3125 243.921875 L 215.21875 243.921875 L 215.21875 240.5 L 218.3125 240.5 L 218.3125 234.882813 L 223.425781 234.882813 L 223.425781 240.5 "/>
<path style=" stroke:none;fill-rule:evenodd;fill:rgb(100%,100%,100%);fill-opacity:1;" d="M 240.152344 233.445313 L 259.378906 233.445313 L 259.378906 238.195313 L 245.804688 238.195313 L 245.804688 243.667969 L 258.261719 243.667969 L 258.261719 248.058594 L 245.804688 248.058594 L 245.804688 254.359375 L 259.664063 254.359375 L 259.664063 259.113281 L 240.152344 259.113281 L 240.152344 233.445313 "/>
<path style=" stroke:none;fill-rule:evenodd;fill:rgb(100%,100%,100%);fill-opacity:1;" d="M 262.964844 240.5 L 267.824219 240.5 L 267.824219 243.09375 C 268.519531 242.058594 269.371094 241.285156 270.378906 240.769531 C 271.386719 240.253906 272.46875 239.996094 273.617188 239.996094 C 276.1875 239.996094 277.964844 240.644531 278.945313 241.941406 C 279.929688 243.234375 280.421875 245.144531 280.421875 247.664063 L 280.421875 259.113281 L 275.3125 259.113281 L 275.3125 248.601563 C 275.3125 245.550781 274.21875 244.027344 272.035156 244.027344 C 270.617188 244.027344 269.605469 244.441406 268.992188 245.269531 C 268.382813 246.097656 268.074219 247.460938 268.074219 249.355469 L 268.074219 259.113281 L 262.964844 259.113281 L 262.964844 240.5 "/>
<path style=" stroke:none;fill-rule:evenodd;fill:rgb(100%,100%,100%);fill-opacity:1;" d="M 293.132813 243.847656 C 291.558594 243.847656 290.40625 244.410156 289.683594 245.539063 C 288.957031 246.667969 288.59375 248.085938 288.59375 249.789063 C 288.59375 251.421875 288.976563 252.824219 289.738281 254 C 290.5 255.175781 291.632813 255.765625 293.132813 255.765625 C 294.703125 255.765625 295.835938 255.199219 296.523438 254.070313 C 297.214844 252.945313 297.558594 251.503906 297.558594 249.753906 C 297.558594 248.046875 297.207031 246.636719 296.507813 245.523438 C 295.804688 244.40625 294.679688 243.847656 293.132813 243.847656 Z M 297.558594 256.734375 C 296.957031 257.71875 296.160156 258.445313 295.164063 258.914063 C 294.167969 259.382813 293.058594 259.617188 291.835938 259.617188 C 289.195313 259.617188 287.140625 258.644531 285.679688 256.699219 C 284.214844 254.757813 283.480469 252.402344 283.480469 249.644531 C 283.480469 246.957031 284.203125 244.675781 285.640625 242.804688 C 287.082031 240.933594 289.109375 239.996094 291.726563 239.996094 C 292.855469 239.996094 293.914063 240.230469 294.910156 240.699219 C 295.90625 241.167969 296.695313 241.855469 297.269531 242.769531 L 297.304688 242.769531 L 297.304688 233.445313 L 302.417969 233.445313 L 302.417969 259.113281 L 297.558594 259.113281 L 297.558594 256.734375 "/>
<path style=" stroke:none;fill-rule:evenodd;fill:rgb(100%,100%,100%);fill-opacity:1;" d="M 315.300781 255.765625 C 316.90625 255.765625 318.066406 255.199219 318.773438 254.070313 C 319.480469 252.945313 319.835938 251.527344 319.835938 249.824219 C 319.835938 248.097656 319.488281 246.667969 318.792969 245.539063 C 318.097656 244.410156 316.933594 243.847656 315.300781 243.847656 C 313.714844 243.847656 312.570313 244.425781 311.863281 245.574219 C 311.152344 246.726563 310.800781 248.144531 310.800781 249.824219 C 310.800781 251.527344 311.148438 252.945313 311.84375 254.070313 C 312.539063 255.199219 313.691406 255.765625 315.300781 255.765625 Z M 315.300781 239.996094 C 318.253906 239.996094 320.597656 240.890625 322.339844 242.679688 C 324.078125 244.464844 324.949219 246.847656 324.949219 249.824219 C 324.949219 252.777344 324.066406 255.144531 322.300781 256.933594 C 320.539063 258.722656 318.203125 259.617188 315.300781 259.617188 C 312.371094 259.617188 310.039063 258.722656 308.296875 256.933594 C 306.558594 255.144531 305.6875 252.777344 305.6875 249.824219 C 305.6875 246.847656 306.558594 244.464844 308.296875 242.679688 C 310.039063 240.890625 312.371094 239.996094 315.300781 239.996094 "/>
<path style=" stroke:none;fill-rule:evenodd;fill:rgb(100%,100%,100%);fill-opacity:1;" d="M 328.253906 240.5 L 333.113281 240.5 L 333.113281 243.957031 C 333.617188 242.804688 334.433594 241.855469 335.5625 241.113281 C 336.691406 240.367188 337.878906 239.996094 339.125 239.996094 C 339.511719 239.996094 339.882813 240.054688 340.242188 240.175781 L 340.242188 244.929688 C 339.714844 244.808594 339.101563 244.75 338.40625 244.75 C 336.65625 244.75 335.375 245.300781 334.574219 246.402344 C 333.769531 247.507813 333.367188 248.949219 333.367188 250.722656 L 333.367188 259.113281 L 328.253906 259.113281 L 328.253906 240.5 "/>
<path style=" stroke:none;fill-rule:evenodd;fill:rgb(100%,100%,100%);fill-opacity:1;" d="M 346.222656 253.0625 C 346.222656 254.121094 346.59375 254.90625 347.339844 255.421875 C 348.085938 255.9375 349.019531 256.195313 350.148438 256.195313 C 351.035156 256.195313 351.816406 256.011719 352.488281 255.636719 C 353.160156 255.265625 353.496094 254.660156 353.496094 253.820313 C 353.496094 252.738281 352.066406 251.886719 349.210938 251.265625 C 346.355469 250.640625 344.40625 249.980469 343.363281 249.285156 C 342.316406 248.589844 341.796875 247.484375 341.796875 245.972656 C 341.796875 243.8125 342.570313 242.277344 344.117188 241.363281 C 345.664063 240.453125 347.59375 239.996094 349.894531 239.996094 C 352.199219 239.996094 354.09375 240.453125 355.585938 241.363281 C 357.070313 242.277344 357.910156 243.800781 358.105469 245.9375 L 353.242188 245.9375 C 353.242188 245.023438 352.921875 244.375 352.273438 243.992188 C 351.625 243.609375 350.78125 243.417969 349.753906 243.417969 C 348.984375 243.417969 348.316406 243.535156 347.753906 243.777344 C 347.191406 244.015625 346.90625 244.472656 346.90625 245.144531 C 346.90625 245.9375 347.257813 246.453125 347.949219 246.691406 C 348.648438 246.933594 350.082031 247.304688 352.253906 247.808594 C 354.425781 248.3125 356.027344 248.929688 357.058594 249.660156 C 358.09375 250.394531 358.609375 251.550781 358.609375 253.136719 C 358.609375 255.417969 357.796875 257.066406 356.175781 258.085938 C 354.558594 259.105469 352.535156 259.617188 350.113281 259.617188 C 347.640625 259.617188 345.5625 259.09375 343.882813 258.050781 C 342.203125 257.007813 341.363281 255.34375 341.363281 253.0625 L 346.222656 253.0625 "/>
<path style=" stroke:none;fill-rule:evenodd;fill:rgb(100%,100%,100%);fill-opacity:1;" d="M 374.148438 247.773438 C 373.910156 246.417969 373.476563 245.425781 372.855469 244.792969 C 372.230469 244.164063 371.304688 243.847656 370.082031 243.847656 C 368.640625 243.847656 367.574219 244.269531 366.878906 245.113281 C 366.183594 245.960938 365.835938 246.84375 365.835938 247.773438 Z M 365.835938 251.011719 C 365.835938 252.609375 366.230469 253.800781 367.023438 254.585938 C 367.8125 255.371094 368.941406 255.765625 370.40625 255.765625 C 371.390625 255.765625 372.265625 255.515625 373.035156 255.015625 C 373.800781 254.515625 374.269531 253.949219 374.4375 253.316406 L 378.9375 253.316406 C 378.242188 255.488281 377.160156 257.082031 375.699219 258.09375 C 374.234375 259.109375 372.410156 259.617188 370.226563 259.617188 C 367.320313 259.617188 365.011719 258.710938 363.296875 256.898438 C 361.578125 255.085938 360.722656 252.726563 360.722656 249.824219 C 360.722656 246.992188 361.605469 244.644531 363.367188 242.785156 C 365.132813 240.925781 367.417969 239.996094 370.226563 239.996094 C 373.179688 239.996094 375.421875 241.0625 376.957031 243.191406 C 378.492188 245.320313 379.261719 247.925781 379.261719 251.011719 L 365.835938 251.011719 "/>
<path style=" stroke:none;fill-rule:evenodd;fill:rgb(100%,100%,100%);fill-opacity:1;" d="M 391.109375 243.847656 C 389.539063 243.847656 388.386719 244.410156 387.660156 245.539063 C 386.9375 246.667969 386.574219 248.085938 386.574219 249.789063 C 386.574219 251.421875 386.953125 252.824219 387.71875 254 C 388.480469 255.175781 389.609375 255.765625 391.109375 255.765625 C 392.683594 255.765625 393.8125 255.199219 394.503906 254.070313 C 395.191406 252.945313 395.539063 251.503906 395.539063 249.753906 C 395.539063 248.046875 395.1875 246.636719 394.484375 245.523438 C 393.785156 244.40625 392.660156 243.847656 391.109375 243.847656 Z M 395.539063 256.734375 C 394.9375 257.71875 394.140625 258.445313 393.144531 258.914063 C 392.148438 259.382813 391.039063 259.617188 389.8125 259.617188 C 387.175781 259.617188 385.121094 258.644531 383.65625 256.699219 C 382.195313 254.757813 381.460938 252.402344 381.460938 249.644531 C 381.460938 246.957031 382.183594 244.675781 383.621094 242.804688 C 385.0625 240.933594 387.089844 239.996094 389.707031 239.996094 C 390.835938 239.996094 391.894531 240.230469 392.890625 240.699219 C 393.886719 241.167969 394.675781 241.855469 395.25 242.769531 L 395.285156 242.769531 L 395.285156 233.445313 L 400.398438 233.445313 L 400.398438 259.113281 L 395.539063 259.113281 L 395.539063 256.734375 "/>
<path style=" stroke:none;fill-rule:evenodd;fill:rgb(100%,100%,100%);fill-opacity:1;" d="M 418.65625 250.542969 C 418.65625 252.152344 419.1875 253.347656 420.257813 254.125 C 421.324219 254.90625 422.6875 255.296875 424.34375 255.296875 C 425.636719 255.296875 426.796875 255.058594 427.816406 254.578125 C 428.835938 254.101563 429.347656 253.273438 429.347656 252.101563 C 429.347656 250.90625 428.867188 250.109375 427.90625 249.714844 C 426.945313 249.320313 424.90625 248.710938 421.785156 247.886719 C 418.667969 247.0625 416.597656 246.0625 415.574219 244.890625 C 414.554688 243.71875 414.046875 242.28125 414.046875 240.585938 C 414.046875 238.117188 415.007813 236.210938 416.925781 234.859375 C 418.847656 233.507813 421.089844 232.832031 423.65625 232.832031 C 426.609375 232.832031 429.066406 233.507813 431.019531 234.855469 C 432.976563 236.207031 433.953125 238.28125 433.953125 241.074219 L 428.484375 241.074219 C 428.484375 239.671875 428.019531 238.679688 427.097656 238.097656 C 426.171875 237.515625 424.941406 237.222656 423.40625 237.222656 C 422.375 237.222656 421.46875 237.457031 420.6875 237.925781 C 419.90625 238.390625 419.519531 239.125 419.519531 240.128906 C 419.519531 241.230469 420.074219 241.96875 421.191406 242.339844 C 422.308594 242.710938 424.246094 243.246094 427.007813 243.953125 C 429.765625 244.660156 431.757813 245.605469 432.984375 246.789063 C 434.207031 247.972656 434.820313 249.53125 434.820313 251.472656 C 434.820313 253.910156 433.894531 255.890625 432.046875 257.410156 C 430.199219 258.929688 427.558594 259.6875 424.128906 259.6875 C 421.054688 259.6875 418.464844 258.90625 416.351563 257.347656 C 414.238281 255.789063 413.183594 253.519531 413.183594 250.542969 L 418.65625 250.542969 "/>
<path style=" stroke:none;fill-rule:evenodd;fill:rgb(100%,100%,100%);fill-opacity:1;" d="M 444.089844 240.5 L 447.835938 240.5 L 447.835938 243.921875 L 444.089844 243.921875 L 444.089844 253.136719 C 444.089844 254 444.234375 254.574219 444.523438 254.863281 C 444.8125 255.152344 445.386719 255.296875 446.25 255.296875 C 446.828125 255.296875 447.355469 255.234375 447.835938 255.117188 L 447.835938 259.113281 C 447.425781 259.199219 446.851563 259.257813 446.105469 259.285156 C 445.363281 259.3125 444.941406 259.328125 444.847656 259.328125 C 443 259.328125 441.558594 259.023438 440.527344 258.410156 C 439.496094 257.796875 438.980469 256.628906 438.980469 254.898438 L 438.980469 243.921875 L 435.882813 243.921875 L 435.882813 240.5 L 438.980469 240.5 L 438.980469 234.882813 L 444.089844 234.882813 L 444.089844 240.5 "/>
<path style=" stroke:none;fill-rule:evenodd;fill:rgb(100%,100%,100%);fill-opacity:1;" d="M 450.046875 246.222656 C 450.046875 244.039063 450.898438 242.457031 452.601563 241.472656 C 454.304688 240.488281 456.371094 239.996094 458.792969 239.996094 C 461.097656 239.996094 463.035156 240.375 464.609375 241.128906 C 466.179688 241.886719 466.964844 243.273438 466.964844 245.289063 L 466.964844 254.972656 C 466.964844 255.882813 467.019531 256.710938 467.128906 257.457031 C 467.234375 258.199219 467.398438 258.753906 467.613281 259.113281 L 462.429688 259.113281 C 462.308594 258.703125 462.21875 258.378906 462.160156 258.140625 C 462.101563 257.898438 462.070313 257.625 462.070313 257.3125 C 461.324219 258.082031 460.394531 258.65625 459.28125 259.039063 C 458.164063 259.425781 457.007813 259.617188 455.804688 259.617188 C 453.910156 259.617188 452.378906 259.148438 451.214844 258.210938 C 450.050781 257.277344 449.46875 255.882813 449.46875 254.035156 C 449.46875 252.140625 450.039063 250.789063 451.179688 249.984375 C 452.320313 249.183594 453.722656 248.667969 455.390625 248.4375 C 457.058594 248.210938 458.601563 247.988281 460.019531 247.773438 C 461.242188 247.460938 461.855469 246.847656 461.855469 245.9375 C 461.855469 244.929688 461.570313 244.257813 461.007813 243.921875 C 460.445313 243.585938 459.621094 243.417969 458.542969 243.417969 C 457.535156 243.417969 456.742188 243.644531 456.164063 244.101563 C 455.589844 244.554688 455.253906 245.265625 455.15625 246.222656 Z M 461.855469 250.003906 C 461.46875 250.339844 460.71875 250.59375 459.605469 250.761719 C 458.488281 250.929688 457.628906 251.070313 457.03125 251.191406 C 456.429688 251.3125 455.871094 251.5625 455.355469 251.949219 C 454.839844 252.332031 454.582031 252.957031 454.582031 253.820313 C 454.582031 254.707031 454.863281 255.324219 455.429688 255.675781 C 455.992188 256.023438 456.753906 256.195313 457.714844 256.195313 C 459.417969 256.195313 460.535156 255.738281 461.0625 254.828125 C 461.589844 253.917969 461.855469 252.945313 461.855469 251.910156 L 461.855469 250.003906 "/>
<path style=" stroke:none;fill-rule:evenodd;fill:rgb(100%,100%,100%);fill-opacity:1;" d="M 470.894531 240.5 L 475.753906 240.5 L 475.753906 243.09375 C 476.449219 242.058594 477.300781 241.285156 478.308594 240.769531 C 479.316406 240.253906 480.398438 239.996094 481.550781 239.996094 C 484.117188 239.996094 485.894531 240.644531 486.878906 241.941406 C 487.863281 243.234375 488.355469 245.144531 488.355469 247.664063 L 488.355469 259.113281 L 483.242188 259.113281 L 483.242188 248.601563 C 483.242188 245.550781 482.148438 244.027344 479.964844 244.027344 C 478.550781 244.027344 477.535156 244.441406 476.925781 245.269531 C 476.3125 246.097656 476.007813 247.460938 476.007813 249.355469 L 476.007813 259.113281 L 470.894531 259.113281 L 470.894531 240.5 "/>
<path style=" stroke:none;fill-rule:evenodd;fill:rgb(100%,100%,100%);fill-opacity:1;" d="M 501.0625 243.847656 C 499.488281 243.847656 498.339844 244.410156 497.613281 245.539063 C 496.886719 246.667969 496.523438 248.085938 496.523438 249.789063 C 496.523438 251.421875 496.90625 252.824219 497.667969 254 C 498.429688 255.175781 499.5625 255.765625 501.0625 255.765625 C 502.632813 255.765625 503.765625 255.199219 504.453125 254.070313 C 505.144531 252.945313 505.488281 251.503906 505.488281 249.753906 C 505.488281 248.046875 505.136719 246.636719 504.4375 245.523438 C 503.734375 244.40625 502.609375 243.847656 501.0625 243.847656 Z M 505.488281 256.734375 C 504.890625 257.71875 504.089844 258.445313 503.09375 258.914063 C 502.097656 259.382813 500.988281 259.617188 499.765625 259.617188 C 497.125 259.617188 495.074219 258.644531 493.609375 256.699219 C 492.144531 254.757813 491.414063 252.402344 491.414063 249.644531 C 491.414063 246.957031 492.132813 244.675781 493.574219 242.804688 C 495.011719 240.933594 497.039063 239.996094 499.65625 239.996094 C 500.785156 239.996094 501.847656 240.230469 502.84375 240.699219 C 503.839844 241.167969 504.625 241.855469 505.199219 242.769531 L 505.238281 242.769531 L 505.238281 233.445313 L 510.347656 233.445313 L 510.347656 259.113281 L 505.488281 259.113281 L 505.488281 256.734375 "/>
<path style=" stroke:none;fill-rule:evenodd;fill:rgb(100%,100%,100%);fill-opacity:1;" d="M 513.980469 246.222656 C 513.980469 244.039063 514.832031 242.457031 516.535156 241.472656 C 518.238281 240.488281 520.304688 239.996094 522.726563 239.996094 C 525.03125 239.996094 526.96875 240.375 528.539063 241.128906 C 530.113281 241.886719 530.898438 243.273438 530.898438 245.289063 L 530.898438 254.972656 C 530.898438 255.882813 530.953125 256.710938 531.0625 257.457031 C 531.167969 258.199219 531.332031 258.753906 531.546875 259.113281 L 526.363281 259.113281 C 526.242188 258.703125 526.152344 258.378906 526.09375 258.140625 C 526.03125 257.898438 526.003906 257.625 526.003906 257.3125 C 525.257813 258.082031 524.328125 258.65625 523.214844 259.039063 C 522.097656 259.425781 520.9375 259.617188 519.738281 259.617188 C 517.84375 259.617188 516.3125 259.148438 515.148438 258.210938 C 513.984375 257.277344 513.402344 255.882813 513.402344 254.035156 C 513.402344 252.140625 513.972656 250.789063 515.113281 249.984375 C 516.253906 249.183594 517.65625 248.667969 519.324219 248.4375 C 520.992188 248.210938 522.535156 247.988281 523.949219 247.773438 C 525.175781 247.460938 525.785156 246.847656 525.785156 245.9375 C 525.785156 244.929688 525.503906 244.257813 524.941406 243.921875 C 524.378906 243.585938 523.554688 243.417969 522.476563 243.417969 C 521.46875 243.417969 520.675781 243.644531 520.097656 244.101563 C 519.523438 244.554688 519.1875 245.265625 519.089844 246.222656 Z M 525.785156 250.003906 C 525.402344 250.339844 524.652344 250.59375 523.535156 250.761719 C 522.421875 250.929688 521.5625 251.070313 520.964844 251.191406 C 520.363281 251.3125 519.804688 251.5625 519.289063 251.949219 C 518.773438 252.332031 518.515625 252.957031 518.515625 253.820313 C 518.515625 254.707031 518.796875 255.324219 519.359375 255.675781 C 519.925781 256.023438 520.6875 256.195313 521.648438 256.195313 C 523.351563 256.195313 524.46875 255.738281 524.996094 254.828125 C 525.523438 253.917969 525.785156 252.945313 525.785156 251.910156 L 525.785156 250.003906 "/>
<path style=" stroke:none;fill-rule:evenodd;fill:rgb(100%,100%,100%);fill-opacity:1;" d="M 534.828125 240.5 L 539.6875 240.5 L 539.6875 243.957031 C 540.191406 242.804688 541.007813 241.855469 542.136719 241.113281 C 543.261719 240.367188 544.449219 239.996094 545.699219 239.996094 C 546.082031 239.996094 546.453125 240.054688 546.816406 240.175781 L 546.816406 244.929688 C 546.285156 244.808594 545.675781 244.75 544.980469 244.75 C 543.226563 244.75 541.949219 245.300781 541.144531 246.402344 C 540.339844 247.507813 539.9375 248.949219 539.9375 250.722656 L 539.9375 259.113281 L 534.828125 259.113281 L 534.828125 240.5 "/>
<path style=" stroke:none;fill-rule:evenodd;fill:rgb(100%,100%,100%);fill-opacity:1;" d="M 557.691406 243.847656 C 556.121094 243.847656 554.96875 244.410156 554.246094 245.539063 C 553.519531 246.667969 553.15625 248.085938 553.15625 249.789063 C 553.15625 251.421875 553.535156 252.824219 554.300781 254 C 555.0625 255.175781 556.191406 255.765625 557.691406 255.765625 C 559.265625 255.765625 560.394531 255.199219 561.085938 254.070313 C 561.773438 252.945313 562.121094 251.503906 562.121094 249.753906 C 562.121094 248.046875 561.769531 246.636719 561.066406 245.523438 C 560.367188 244.40625 559.242188 243.847656 557.691406 243.847656 Z M 562.121094 256.734375 C 561.519531 257.71875 560.722656 258.445313 559.726563 258.914063 C 558.730469 259.382813 557.621094 259.617188 556.394531 259.617188 C 553.757813 259.617188 551.703125 258.644531 550.238281 256.699219 C 548.777344 254.757813 548.042969 252.402344 548.042969 249.644531 C 548.042969 246.957031 548.765625 244.675781 550.203125 242.804688 C 551.644531 240.933594 553.671875 239.996094 556.289063 239.996094 C 557.414063 239.996094 558.476563 240.230469 559.472656 240.699219 C 560.46875 241.167969 561.257813 241.855469 561.832031 242.769531 L 561.867188 242.769531 L 561.867188 233.445313 L 566.980469 233.445313 L 566.980469 259.113281 L 562.121094 259.113281 L 562.121094 256.734375 "/>
<path style=" stroke:none;fill-rule:evenodd;fill:rgb(100%,100%,100%);fill-opacity:1;" d="M 574.785156 253.0625 C 574.785156 254.121094 575.15625 254.90625 575.902344 255.421875 C 576.644531 255.9375 577.582031 256.195313 578.710938 256.195313 C 579.597656 256.195313 580.378906 256.011719 581.050781 255.636719 C 581.722656 255.265625 582.058594 254.660156 582.058594 253.820313 C 582.058594 252.738281 580.632813 251.886719 577.773438 251.265625 C 574.917969 250.640625 572.96875 249.980469 571.925781 249.285156 C 570.882813 248.589844 570.359375 247.484375 570.359375 245.972656 C 570.359375 243.8125 571.132813 242.277344 572.679688 241.363281 C 574.226563 240.453125 576.15625 239.996094 578.457031 239.996094 C 580.761719 239.996094 582.65625 240.453125 584.144531 241.363281 C 585.636719 242.277344 586.472656 243.800781 586.664063 245.9375 L 581.804688 245.9375 C 581.804688 245.023438 581.480469 244.375 580.835938 243.992188 C 580.1875 243.609375 579.347656 243.417969 578.3125 243.417969 C 577.546875 243.417969 576.882813 243.535156 576.316406 243.777344 C 575.753906 244.015625 575.46875 244.472656 575.46875 245.144531 C 575.46875 245.9375 575.820313 246.453125 576.515625 246.691406 C 577.210938 246.933594 578.644531 247.304688 580.816406 247.808594 C 582.988281 248.3125 584.589844 248.929688 585.621094 249.660156 C 586.65625 250.394531 587.171875 251.550781 587.171875 253.136719 C 587.171875 255.417969 586.359375 257.066406 584.738281 258.085938 C 583.121094 259.105469 581.097656 259.617188 578.675781 259.617188 C 576.203125 259.617188 574.125 259.09375 572.445313 258.050781 C 570.765625 257.007813 569.925781 255.34375 569.925781 253.0625 L 574.785156 253.0625 "/>
<path style=" stroke:none;fill-rule:nonzero;fill:rgb(1.998901%,48.999023%,61.599731%);fill-opacity:1;" d="M 216.941406 150.671875 C 220.054688 152.269531 222.183594 155.507813 222.183594 159.246094 C 222.183594 164.5625 217.875 168.871094 212.558594 168.871094 C 211.117188 168.871094 209.753906 168.554688 208.527344 167.988281 L 168.839844 145.621094 C 168.210938 145.183594 167.484375 144.871094 166.683594 144.871094 C 165.027344 144.871094 163.683594 146.214844 163.683594 147.871094 C 163.683594 148.445313 163.847656 148.984375 164.128906 149.441406 L 187.195313 168.519531 C 187.703125 168.859375 188.175781 169.253906 188.609375 169.683594 C 190.390625 171.480469 191.433594 173.871094 191.433594 176.496094 C 191.433594 181.8125 187.125 186.121094 181.808594 186.121094 C 180.34375 186.121094 178.953125 185.792969 177.710938 185.207031 L 177.433594 185.070313 C 176.652344 184.671875 175.9375 184.171875 175.296875 183.582031 L 146.808594 163.746094 L 146.570313 163.457031 L 146.371094 163.613281 C 146.007813 163.457031 145.605469 163.371094 145.183594 163.371094 C 143.527344 163.371094 142.183594 164.714844 142.183594 166.371094 C 142.183594 166.546875 142.199219 166.722656 142.230469 166.890625 L 155.800781 179.753906 C 157.398438 181.375 158.433594 183.566406 158.433594 185.996094 C 158.433594 190.621094 154.683594 194.371094 150.058594 194.371094 C 149.015625 194.371094 148.015625 194.179688 147.097656 193.832031 L 121.378906 178.085938 C 113.164063 173.710938 56.597656 137.734375 53.746094 135.683594 C 50.621094 133.433594 47.304688 132.871094 45.246094 132.871094 L 35.96875 132.871094 C 32.167969 132.871094 31.378906 129.113281 31.378906 125.257813 C 31.378906 121.398438 31.847656 48.695313 31.847656 45.714844 C 31.847656 42.726563 33.046875 40.15625 38.8125 37.160156 C 45.496094 33.683594 67.265625 23.269531 69.964844 22.109375 C 72.667969 20.953125 74.488281 20.691406 77.027344 22.109375 C 79.5625 23.53125 234.894531 120.085938 242.308594 123.996094 C 245.554688 125.703125 250.558594 133.371094 246.933594 140.371094 C 244.054688 145.929688 238.703125 147.394531 234.183594 145.871094 C 221.933594 141.746094 203.808594 131.246094 192.675781 126.039063 C 192.363281 125.929688 192.03125 125.871094 191.683594 125.871094 C 190.074219 125.871094 188.757813 127.140625 188.6875 128.734375 L 188.359375 129.050781 L 216.941406 150.671875 "/>
<path style=" stroke:none;fill-rule:nonzero;fill:rgb(91.398621%,50.19989%,36.499023%);fill-opacity:1;" d="M 29.445313 150.503906 C 29.445313 144.324219 34.453125 139.3125 40.636719 139.3125 C 46.816406 139.3125 51.828125 144.324219 51.828125 150.503906 C 51.828125 156.683594 46.816406 161.695313 40.636719 161.695313 C 34.453125 161.695313 29.445313 156.683594 29.445313 150.503906 "/>
<path style=" stroke:none;fill-rule:nonzero;fill:rgb(91.398621%,50.19989%,36.499023%);fill-opacity:1;" d="M 52.242188 164.035156 C 52.242188 157.851563 57.253906 152.84375 63.433594 152.84375 C 69.613281 152.84375 74.625 157.851563 74.625 164.035156 C 74.625 170.214844 69.613281 175.226563 63.433594 175.226563 C 57.253906 175.226563 52.242188 170.214844 52.242188 164.035156 "/>
<path style=" stroke:none;fill-rule:nonzero;fill:rgb(91.398621%,50.19989%,36.499023%);fill-opacity:1;" d="M 75.039063 177.804688 C 75.039063 171.625 80.050781 166.613281 86.230469 166.613281 C 92.410156 166.613281 97.421875 171.625 97.421875 177.804688 C 97.421875 183.984375 92.410156 188.996094 86.230469 188.996094 C 80.050781 188.996094 75.039063 183.984375 75.039063 177.804688 "/>
<path style=" stroke:none;fill-rule:nonzero;fill:rgb(91.398621%,50.19989%,36.499023%);fill-opacity:1;" d="M 99.039063 187.160156 C 99.039063 182.65625 102.691406 179.007813 107.191406 179.007813 C 111.695313 179.007813 115.34375 182.65625 115.34375 187.160156 C 115.34375 191.664063 111.695313 195.3125 107.191406 195.3125 C 102.691406 195.3125 99.039063 191.664063 99.039063 187.160156 "/>
<path style=" stroke:none;fill-rule:evenodd;fill:rgb(91.398621%,50.19989%,36.499023%);fill-opacity:1;" d="M 158.84375 1.484375 C 158.84375 1.484375 74.996094 44.675781 67.578125 48.585938 C 60.792969 52.160156 58.949219 57.585938 62.035156 61.730469 C 65.121094 65.871094 68.398438 69.261719 73.425781 70.363281 C 76.4375 71.023438 85.175781 71.433594 91.578125 67.976563 C 98.292969 64.351563 114.050781 56.09375 119.671875 53.261719 C 124.746094 50.703125 127.144531 53.3125 129.824219 54.84375 C 141.074219 61.953125 177.988281 84.683594 240.566406 123.027344 C 242.40625 123.027344 247.914063 123.027344 251.027344 123.027344 C 254.824219 123.027344 255.613281 119.273438 255.613281 115.414063 C 255.613281 111.554688 255.613281 42.925781 255.613281 39.941406 C 255.613281 36.957031 256.28125 35.414063 250.210938 33.097656 C 244.140625 30.785156 169.15625 1.484375 166.457031 0.328125 C 163.753906 -0.828125 158.84375 1.484375 158.84375 1.484375 "/>
</g>
</svg>
